<?xml version="1.0" encoding="UTF-8"?>
<svg width="16px" height="16px" viewBox="0 0 16 16" version="1.1" xmlns="http://www.w3.org/2000/svg" xmlns:xlink="http://www.w3.org/1999/xlink">
    <!-- Generator: Sketch 57.1 (83088) - https://sketch.com -->
    <title>screenshot-icon</title>
    <desc>Created with Sketch.</desc>
    <g id="Page-1" stroke="none" stroke-width="1" fill="none" fill-rule="evenodd">
        <g id="Artboard-Copy" transform="translate(-1112.000000, -10.000000)" fill="#6D6D6D" fill-rule="nonzero">
            <path d="M1125.4902,20.6666667 C1125.83674,20.6666667 1126.11765,20.9492387 1126.11765,21.2978304 L1126.11765,21.2978304 L1126.11765,22.8441815 L1127.37255,22.8441815 C1127.71909,22.8441815 1128,23.1267535 1128,23.4753452 C1128,23.8239369 1127.71909,24.1065089 1127.37255,24.1065089 L1127.37255,24.1065089 L1126.11765,24.1065089 L1126.11765,25.3688363 C1126.11765,25.717428 1125.83674,26 1125.4902,26 C1125.14365,26 1124.86275,25.717428 1124.86275,25.3688363 L1124.86275,25.3688363 L1124.86275,24.1065089 L1123.29412,24.1065089 C1122.94758,24.1065089 1122.66667,23.8239369 1122.66667,23.4753452 C1122.66667,23.1267535 1122.94758,22.8441815 1123.29412,22.8441815 L1123.29412,22.8441815 L1124.86275,22.8441815 L1124.86275,21.2978304 C1124.86275,20.9492387 1125.14365,20.6666667 1125.4902,20.6666667 Z M1114.60606,20.6666667 C1114.90732,20.6666667 1115.15722,20.888463 1115.20419,21.1790771 L1115.21212,21.2782875 L1115.21212,21.5535168 C1115.21212,22.1858563 1115.69003,22.7076739 1116.30049,22.7704311 L1116.42424,22.7767584 L1116.72727,22.7767584 C1117.062,22.7767584 1117.33333,23.050581 1117.33333,23.3883792 C1117.33333,23.6923976 1117.11355,23.9445957 1116.82558,23.9919952 L1116.72727,24 L1116.42424,24 C1115.14098,24 1114.0874,22.988551 1114.00517,21.7141344 L1114,21.5535168 L1114,21.2782875 C1114,20.9404893 1114.27133,20.6666667 1114.60606,20.6666667 Z M1125.33333,16.6666667 C1125.66806,16.6666667 1125.94516,16.8811594 1125.99277,17.1607095 L1126,17.2463768 L1126,18.7536232 C1126,19.0737971 1125.70153,19.3333333 1125.33333,19.3333333 C1124.99861,19.3333333 1124.72151,19.1188406 1124.67389,18.8392905 L1124.66667,18.7536232 L1124.66667,17.2463768 C1124.66667,16.9262029 1124.96513,16.6666667 1125.33333,16.6666667 Z M1114.66667,16.6666667 C1115.00139,16.6666667 1115.27849,16.8811594 1115.32611,17.1607095 L1115.33333,17.2463768 L1115.33333,18.7536232 C1115.33333,19.0737971 1115.03487,19.3333333 1114.66667,19.3333333 C1114.33194,19.3333333 1114.05484,19.1188406 1114.00723,18.8392905 L1114,18.7536232 L1114,17.2463768 C1114,16.9262029 1114.29847,16.6666667 1114.66667,16.6666667 Z M1114.52465,10 C1114.84156,10 1115.1039,10.2321569 1115.14898,10.5347287 L1115.15582,10.627451 L1115.15582,11.8823529 L1116.70217,11.8823529 C1117.05076,11.8823529 1117.33333,12.1632627 1117.33333,12.5098039 C1117.33333,12.8248414 1117.0998,13.085638 1116.79544,13.1304519 L1116.70217,13.1372549 L1115.15582,13.1372549 L1115.15582,14.7058824 C1115.15582,15.0524235 1114.87325,15.3333333 1114.52465,15.3333333 C1114.20775,15.3333333 1113.94541,15.1011765 1113.90033,14.7986046 L1113.89349,14.7058824 L1113.89349,13.1372549 L1112.63116,13.1372549 C1112.28257,13.1372549 1112,12.8563451 1112,12.5098039 C1112,12.1947665 1112.23353,11.9339699 1112.53789,11.8891559 L1112.63116,11.8823529 L1113.89349,11.8823529 L1113.89349,10.627451 C1113.89349,10.2809098 1114.17606,10 1114.52465,10 Z M1123.57576,12 C1124.85902,12 1125.9126,13.002254 1125.99483,14.265085 L1126,14.4242424 L1126,14.7272727 C1126,15.062 1125.72867,15.3333333 1125.39394,15.3333333 C1125.09268,15.3333333 1124.84278,15.1135533 1124.79581,14.8255812 L1124.78788,14.7272727 L1124.78788,14.4242424 C1124.78788,13.7976515 1124.30997,13.2805777 1123.69951,13.218391 L1123.57576,13.2121212 L1123.27273,13.2121212 C1122.938,13.2121212 1122.66667,12.9407879 1122.66667,12.6060606 C1122.66667,12.3048061 1122.88645,12.0549006 1123.17442,12.0079321 L1123.27273,12 L1123.57576,12 Z M1120.75362,22.6666667 C1121.0738,22.6666667 1121.33333,22.9651333 1121.33333,23.3333333 C1121.33333,23.7015333 1121.0738,24 1120.75362,24 L1120.75362,24 L1119.24638,24 C1118.9262,24 1118.66667,23.7015333 1118.66667,23.3333333 C1118.66667,22.9651333 1118.9262,22.6666667 1119.24638,22.6666667 L1119.24638,22.6666667 Z M1120.75362,12 C1121.0738,12 1121.33333,12.2984667 1121.33333,12.6666667 C1121.33333,13.0348667 1121.0738,13.3333333 1120.75362,13.3333333 L1120.75362,13.3333333 L1119.24638,13.3333333 C1118.9262,13.3333333 1118.66667,13.0348667 1118.66667,12.6666667 C1118.66667,12.2984667 1118.9262,12 1119.24638,12 L1119.24638,12 Z" id="screenshot-icon"></path>
        </g>
    </g>
</svg>