<?xml version="1.0" encoding="UTF-8"?>
<svg width="14px" height="14px" viewBox="0 0 14 14" version="1.1" xmlns="http://www.w3.org/2000/svg" xmlns:xlink="http://www.w3.org/1999/xlink">
    <!-- Generator: Sketch 57.1 (83088) - https://sketch.com -->
    <title>screenshot-gear-icon</title>
    <desc>Created with Sketch.</desc>
    <g id="Page-1" stroke="none" stroke-width="1" fill="none" fill-rule="evenodd">
        <g id="Artboard" transform="translate(-260.000000, -155.000000)" fill="#000000" fill-rule="nonzero">
            <path d="M269.333333,162 C269.333333,161.355903 269.105469,160.80599 268.64974,160.35026 C268.19401,159.894531 267.644097,159.666667 267,159.666667 C266.355903,159.666667 265.80599,159.894531 265.35026,160.35026 C264.894531,160.80599 264.666667,161.355903 264.666667,162 C264.666667,162.644097 264.894531,163.19401 265.35026,163.64974 C265.80599,164.105469 266.355903,164.333333 267,164.333333 C267.644097,164.333333 268.19401,164.105469 268.64974,163.64974 C269.105469,163.19401 269.333333,162.644097 269.333333,162 Z M274,161.00651 L274,163.029948 C274,163.102865 273.975694,163.172743 273.927083,163.239583 C273.878472,163.306424 273.817708,163.34592 273.744792,163.358073 L272.058594,163.613281 C271.943142,163.941406 271.824653,164.217882 271.703125,164.442708 C271.915799,164.746528 272.240885,165.165799 272.678385,165.700521 C272.739149,165.773438 272.769531,165.849392 272.769531,165.928385 C272.769531,166.007378 272.742188,166.077257 272.6875,166.138021 C272.523438,166.362847 272.222656,166.690972 271.785156,167.122396 C271.347656,167.553819 271.062066,167.769531 270.928385,167.769531 C270.855469,167.769531 270.776476,167.742188 270.691406,167.6875 L269.433594,166.703125 C269.166233,166.842882 268.889757,166.958333 268.604167,167.049479 C268.506944,167.875868 268.418837,168.440972 268.339844,168.744792 C268.297309,168.914931 268.187934,169 268.011719,169 L265.988281,169 C265.903212,169 265.828776,168.974175 265.764974,168.922526 C265.701172,168.870877 265.666233,168.805556 265.660156,168.726562 L265.404948,167.049479 C265.107205,166.952257 264.833767,166.839844 264.584635,166.71224 L263.299479,167.6875 C263.238715,167.742188 263.16276,167.769531 263.071615,167.769531 C262.986545,167.769531 262.91059,167.736111 262.84375,167.669271 C262.078125,166.976562 261.576823,166.466146 261.339844,166.138021 C261.297309,166.077257 261.276042,166.007378 261.276042,165.928385 C261.276042,165.855469 261.300347,165.78559 261.348958,165.71875 C261.440104,165.591146 261.595052,165.389106 261.813802,165.11263 C262.032552,164.836155 262.196615,164.621962 262.30599,164.470052 C262.141927,164.166233 262.017361,163.865451 261.932292,163.567708 L260.264323,163.321615 C260.18533,163.309462 260.121528,163.271484 260.072917,163.207682 C260.024306,163.14388 260,163.072483 260,162.99349 L260,160.970052 C260,160.897135 260.024306,160.827257 260.072917,160.760417 C260.121528,160.693576 260.179253,160.65408 260.246094,160.641927 L261.941406,160.386719 C262.026476,160.107205 262.144965,159.827691 262.296875,159.548177 C262.053819,159.201823 261.728733,158.782552 261.321615,158.290365 C261.260851,158.217448 261.230469,158.144531 261.230469,158.071615 C261.230469,158.010851 261.257812,157.940972 261.3125,157.861979 C261.470486,157.643229 261.769748,157.316623 262.210286,156.882161 C262.650825,156.4477 262.937934,156.230469 263.071615,156.230469 C263.150608,156.230469 263.229601,156.260851 263.308594,156.321615 L264.566406,157.296875 C264.833767,157.157118 265.110243,157.041667 265.395833,156.950521 C265.493056,156.124132 265.581163,155.559028 265.660156,155.255208 C265.702691,155.085069 265.812066,155 265.988281,155 L268.011719,155 C268.096788,155 268.171224,155.025825 268.235026,155.077474 C268.298828,155.129123 268.333767,155.194444 268.339844,155.273438 L268.595052,156.950521 C268.892795,157.047743 269.166233,157.160156 269.415365,157.28776 L270.709635,156.3125 C270.764323,156.257812 270.83724,156.230469 270.928385,156.230469 C271.007378,156.230469 271.083333,156.260851 271.15625,156.321615 C271.940104,157.044705 272.441406,157.561198 272.660156,157.871094 C272.702691,157.919705 272.723958,157.986545 272.723958,158.071615 C272.723958,158.144531 272.699653,158.21441 272.651042,158.28125 C272.559896,158.408854 272.404948,158.610894 272.186198,158.88737 C271.967448,159.163845 271.803385,159.378038 271.69401,159.529948 C271.851997,159.833767 271.976562,160.13151 272.067708,160.423177 L273.735677,160.678385 C273.81467,160.690538 273.878472,160.728516 273.927083,160.792318 C273.975694,160.85612 274,160.927517 274,161.00651 Z" id="screenshot-gear-icon"></path>
        </g>
    </g>
</svg>